<svg xmlns="http://www.w3.org/2000/svg" viewBox="0 0 455.2 455.33"><defs><style>.cls-1{fill:#ffd96c;}.cls-2{fill:#fff;}</style></defs><g id="Capa_2" data-name="Capa 2"><g id="Capa_1-2" data-name="Capa 1"><rect class="cls-1" x="0.2" y="0.33" width="455" height="455"/><path class="cls-1" d="M455.06,46.17V408.88a46.22,46.22,0,0,1-46.17,46.18H46.18A46.22,46.22,0,0,1,0,408.88V46.17A46.22,46.22,0,0,1,46.18,0H408.89A46.22,46.22,0,0,1,455.06,46.17Z"/><path class="cls-2" d="M227.53,96.56a180,180,0,0,0-136,62.09l20.17,20.18a151.61,151.61,0,0,1,231.66,0l20.18-20.18A180,180,0,0,0,227.53,96.56Z"/><path class="cls-2" d="M311.34,215.6l20.25-20.26a135.11,135.11,0,0,0-208.11,0l20.25,20.26a106.61,106.61,0,0,1,167.61,0Z"/><path class="cls-2" d="M157.24,229.11l20.45,20.45a59.27,59.27,0,0,1,99.69,0l20.45-20.45a87.75,87.75,0,0,0-140.59,0Z"/><path class="cls-2" d="M170.29,312.16a113,113,0,0,0,1.83,20.42,110.36,110.36,0,0,0-8.22-14.95l-18.14-28.52H123.17V367h19.4V329.27a54,54,0,0,0-1.89-12.77A134.55,134.55,0,0,0,149,332.58L170.29,367h19.45V289.11H170.29Z"/><polygon class="cls-2" points="203.32 366.98 226.59 366.98 226.59 337.83 251.98 337.83 251.98 320.32 226.59 320.32 226.59 307.65 259.62 307.65 259.62 289.11 203.32 289.11 203.32 366.98"/><path class="cls-2" d="M299.55,305.6a9.06,9.06,0,0,1,7.05,3.48q3,3.48,3,11.29l22.31-1.19q-1.08-14.15-9.38-22.71t-23.76-8.55q-16.54,0-25.79,11.23t-9.24,29.55q0,18.49,9.75,29t25.62,10.5q13.17,0,22.22-7.65t10.58-22l-21.85-1.31q-1.14,12.9-10.61,12.89a9.27,9.27,0,0,1-8.24-4.56q-2.94-4.56-2.94-17.29Q288.26,305.61,299.55,305.6Z"/></g></g></svg>