<svg xmlns="http://www.w3.org/2000/svg" viewBox="0 0 134 27.06"><defs><style>.cls-1{fill:#ffd96c;}.cls-2{fill:#fff;}</style></defs><g id="Capa_2" data-name="Capa 2"><g id="Capa_1-2" data-name="Capa 1"><path class="cls-1" d="M20.72,13.52v6.76H6.91V6.76H20.72v6.76a6.83,6.83,0,0,0,6.92-6.76A6.83,6.83,0,0,0,20.72,0V0H0v27H20.72a6.77,6.77,0,1,0,0-13.54Z"/><path class="cls-2" d="M52.4,12.86v0a3,3,0,0,0,1.27-.91,2.58,2.58,0,0,0,.62-1.81,2.9,2.9,0,0,0-1.16-2.43,6.47,6.47,0,0,0-3.94-.91h-7.7V20.32h8.63a7.9,7.9,0,0,0,3.09-.51,3.51,3.51,0,0,0,1.7-1.42,3.82,3.82,0,0,0,.52-2A3.39,3.39,0,0,0,52.4,12.86ZM44.06,9.25c0-.34,0-.55.13-.6A2.1,2.1,0,0,1,45,8.57h4A3.46,3.46,0,0,1,51.1,9a1.65,1.65,0,0,1,.62,1.4A1.9,1.9,0,0,1,51.1,12a3.06,3.06,0,0,1-1.91.49H45a1.88,1.88,0,0,1-.81-.1c-.08-.05-.13-.26-.13-.58Zm8,8.63a3.79,3.79,0,0,1-2.41.61H45a1.82,1.82,0,0,1-.79-.1c-.08-.06-.13-.26-.13-.58v-3c0-.34,0-.54.13-.6a2,2,0,0,1,.81-.09h4a6,6,0,0,1,3,.52,1.87,1.87,0,0,1,.81,1.69A1.88,1.88,0,0,1,52.11,17.88Z"/><path class="cls-2" d="M58.77,7.57a1.44,1.44,0,0,0,1-.38,1.13,1.13,0,0,0,.36-.86,1.19,1.19,0,0,0-.36-.89,1.37,1.37,0,0,0-1-.36,1.34,1.34,0,0,0-1,.36,1.25,1.25,0,0,0-.37.89,1.14,1.14,0,0,0,.37.86A1.34,1.34,0,0,0,58.77,7.57Z"/><path class="cls-2" d="M57.63,9.74V21.56a5.88,5.88,0,0,1-.25,2.06,1,1,0,0,1-1.08.66A2.23,2.23,0,0,1,55,23.89a4.48,4.48,0,0,1-.7-.59l-.6,2.08a2.86,2.86,0,0,0,.89.3,8.34,8.34,0,0,0,1.64.15,3.63,3.63,0,0,0,1.82-.47,3.6,3.6,0,0,0,1.39-1.64,8,8,0,0,0,.52-3.2V9.76H57.63Z"/><path class="cls-2" d="M71.5,20.32h2.36V9.74H71.5v5A4.62,4.62,0,0,1,71,16.92a3.74,3.74,0,0,1-1.32,1.49,3.55,3.55,0,0,1-2,.55,2.38,2.38,0,0,1-1.81-.7,3.77,3.77,0,0,1-.7-2.63V9.74H62.89v5.55a7.43,7.43,0,0,0,.54,3.18A3.17,3.17,0,0,0,65,20.07a5.71,5.71,0,0,0,2.34.47,5.46,5.46,0,0,0,2.09-.37,5.1,5.1,0,0,0,1.37-.85,3.08,3.08,0,0,0,.69-.85l0,0,0,.46v1.36Z"/><path class="cls-2" d="M109.36,12.24a4.27,4.27,0,0,0-1.8-2,6.71,6.71,0,0,0-3.4-.73,5.87,5.87,0,0,0-2.2.36,4.51,4.51,0,0,0-1.39.79l0,0,0-.43V9.74H98.21V25.32h2.36V19.88l0-.43,0,0a4.34,4.34,0,0,0,1.47.81,6.89,6.89,0,0,0,2.14.3,7,7,0,0,0,3.42-.71,4.09,4.09,0,0,0,1.78-2,7.26,7.26,0,0,0,.52-2.79A7.32,7.32,0,0,0,109.36,12.24Zm-2.13,4.92a2.34,2.34,0,0,1-1.08,1.33,4.49,4.49,0,0,1-2.22.45,3.75,3.75,0,0,1-2.07-.49,2.68,2.68,0,0,1-1-1.38,6.44,6.44,0,0,1-.29-2,7.36,7.36,0,0,1,.27-2,2.76,2.76,0,0,1,1-1.45,3.53,3.53,0,0,1,2.11-.55,4.21,4.21,0,0,1,2.2.47,2.6,2.6,0,0,1,1.08,1.36,6.15,6.15,0,0,1,.31,2.12A5.41,5.41,0,0,1,107.23,17.16Z"/><path class="cls-2" d="M122.18,17.75a4.26,4.26,0,0,1-1.43.75,8,8,0,0,1-2.86.42,4.29,4.29,0,0,1-3-1,3.49,3.49,0,0,1-1-2.65h8.86v-.83a7.7,7.7,0,0,0-.19-1.7,4.58,4.58,0,0,0-.74-1.6A3.71,3.71,0,0,0,120.19,10a7.06,7.06,0,0,0-2.76-.45A6,6,0,0,0,113,11a5.48,5.48,0,0,0-1.49,4,8.77,8.77,0,0,0,.27,2.17,4,4,0,0,0,.93,1.74,4.53,4.53,0,0,0,1.85,1.17,9.06,9.06,0,0,0,3,.41,13.33,13.33,0,0,0,3.13-.3,7.82,7.82,0,0,0,1.8-.6l-.23-1.5ZM115,11.8a3.77,3.77,0,0,1,2.4-.7,3.16,3.16,0,0,1,1.81.44,2.38,2.38,0,0,1,.91,1.07,3.07,3.07,0,0,1,.25,1.23h-5.62a.81.81,0,0,1-.5-.11.39.39,0,0,1-.13-.34A2,2,0,0,1,115,11.8Z"/><path class="cls-2" d="M94.16,10.72a4.36,4.36,0,0,0-3.29-1.18,5.32,5.32,0,0,0-2,.34,4.28,4.28,0,0,0-1.35.81,4,4,0,0,0-.79.92,3.41,3.41,0,0,0-1.51-1.56,5.09,5.09,0,0,0-2.39-.51A5.27,5.27,0,0,0,81,9.8a3.83,3.83,0,0,0-1.12.64,8.27,8.27,0,0,0-.77.81l0,0,0-.31V9.76H76.77V20.32h2.36V14.73A3.79,3.79,0,0,1,80,11.91a3,3,0,0,1,2.16-.83,3.13,3.13,0,0,1,1.43.31,2.09,2.09,0,0,1,1,1,5.05,5.05,0,0,1,.34,2.08V20.3h2.36V14.71a3.86,3.86,0,0,1,.83-2.8,3,3,0,0,1,2.16-.83,3.1,3.1,0,0,1,1.43.31,2,2,0,0,1,1,1A5,5,0,0,1,93,14.52V20.3h2.35V14.46A5.56,5.56,0,0,0,94.16,10.72Z"/><path class="cls-2" d="M132.86,9.82a5.06,5.06,0,0,0-1.87-.3,4.4,4.4,0,0,0-2.09.45,4.21,4.21,0,0,0-1.37,1.11l0,0,0-.38V9.76h-2.38V20.32h2.36V14.44a3.27,3.27,0,0,1,.72-2.39,2.25,2.25,0,0,1,1.64-.72,4.49,4.49,0,0,1,1.52.26,5.91,5.91,0,0,1,1.28.66,4,4,0,0,1,.73.63l.6-2.44A4,4,0,0,0,132.86,9.82Z"/></g></g></svg>