<svg xmlns="http://www.w3.org/2000/svg" viewBox="0 0 212.44 42.9">
    <defs>

    </defs>
    <g id="Capa_2" data-name="Capa 2">
        <g id="Capa_1-2" data-name="Capa 1">
            <path fill=" #ffd96c"
                d="M32.86,21.43V32.15H11V10.72h21.9V21.43a10.83,10.83,0,0,0,11-10.71A10.83,10.83,0,0,0,32.86,0V0H0V42.9H32.86a10.74,10.74,0,1,0,0-21.47Z" />
            <path fill="#034068"
                d="M83.07,20.39v-.06a4.81,4.81,0,0,0,2-1.44,4.13,4.13,0,0,0,1-2.87,4.67,4.67,0,0,0-1.83-3.87Q82.4,10.72,78,10.72H65.77V32.21H79.46a12.52,12.52,0,0,0,4.9-.81,5.62,5.62,0,0,0,2.69-2.24A6.18,6.18,0,0,0,87.88,26C87.85,23,86.26,21.1,83.07,20.39ZM69.84,14.67c0-.54.07-.87.22-1a3.44,3.44,0,0,1,1.28-.12h6.34a5.48,5.48,0,0,1,3.34.75,2.61,2.61,0,0,1,1,2.21,3,3,0,0,1-1,2.52,4.85,4.85,0,0,1-3,.78H71.34a3.08,3.08,0,0,1-1.28-.15,1.35,1.35,0,0,1-.22-.93ZM82.61,28.35a6.05,6.05,0,0,1-3.82,1H71.31a3,3,0,0,1-1.25-.15,1.35,1.35,0,0,1-.22-.93V23.44c0-.54.07-.87.22-1a3.18,3.18,0,0,1,1.28-.15h6.34c2.33,0,3.92.27,4.78.84a3,3,0,0,1,1.29,2.66A3,3,0,0,1,82.61,28.35Z" />
            <path fill="#034068"
                d="M93.18,12a2.31,2.31,0,0,0,1.65-.59A1.83,1.83,0,0,0,95.41,10a1.89,1.89,0,0,0-.58-1.41,2.69,2.69,0,0,0-3.31,0A2,2,0,0,0,90.94,10a1.83,1.83,0,0,0,.58,1.38A2.19,2.19,0,0,0,93.18,12Z" />
            <path fill="#034068"
                d="M91.37,15.45V34.19a9.48,9.48,0,0,1-.4,3.26,1.64,1.64,0,0,1-1.71,1,3.5,3.5,0,0,1-2.05-.63,7.52,7.52,0,0,1-1.11-.93l-.95,3.29a4.11,4.11,0,0,0,1.41.48,12.61,12.61,0,0,0,2.61.24,5.31,5.31,0,0,0,5.08-3.35,12.64,12.64,0,0,0,.82-5.06V15.48h-3.7Z" />
            <path fill="#034068"
                d="M113.36,32.21h3.73V15.45h-3.73v8a7.37,7.37,0,0,1-.77,3.41,5.84,5.84,0,0,1-2.08,2.37,5.67,5.67,0,0,1-3.13.86,3.75,3.75,0,0,1-2.87-1.1c-.74-.75-1.11-2.13-1.11-4.16V15.45H99.7v8.8a11.67,11.67,0,0,0,.86,5A5,5,0,0,0,103,31.82a8.91,8.91,0,0,0,3.7.75A8.44,8.44,0,0,0,110,32a7.75,7.75,0,0,0,2.17-1.35,4.72,4.72,0,0,0,1.1-1.34l.07.06-.07.71v2.16Z" />
            <path fill="#034068"
                d="M173.37,19.4a6.77,6.77,0,0,0-2.85-3.15,10.68,10.68,0,0,0-5.39-1.16,9.46,9.46,0,0,0-3.49.57,7.21,7.21,0,0,0-2.2,1.25l-.06-.06.06-.69v-.71H155.7V40.14h3.74V31.52l-.06-.69.06,0a6.9,6.9,0,0,0,2.33,1.29,13,13,0,0,0,8.81-.66,6.34,6.34,0,0,0,2.82-3.11,11.39,11.39,0,0,0,.83-4.43A11.45,11.45,0,0,0,173.37,19.4ZM170,27.21a3.69,3.69,0,0,1-1.71,2.1,7.07,7.07,0,0,1-3.52.71,5.91,5.91,0,0,1-3.28-.77,4.17,4.17,0,0,1-1.62-2.19,9.87,9.87,0,0,1-.46-3.14,11.21,11.21,0,0,1,.43-3.15,4.33,4.33,0,0,1,1.56-2.3,5.56,5.56,0,0,1,3.34-.87,6.68,6.68,0,0,1,3.49.75,4.09,4.09,0,0,1,1.71,2.16,9.82,9.82,0,0,1,.49,3.35A8.56,8.56,0,0,1,170,27.21Z" />
            <path fill="#034068"
                d="M193.7,28.14a6.8,6.8,0,0,1-2.26,1.2,13.07,13.07,0,0,1-4.54.65,6.75,6.75,0,0,1-4.8-1.52,5.51,5.51,0,0,1-1.63-4.19h14.06V23a11.34,11.34,0,0,0-.31-2.69,7.11,7.11,0,0,0-1.16-2.55,5.94,5.94,0,0,0-2.51-1.88,11.14,11.14,0,0,0-4.38-.72c-3.09,0-5.45.78-7,2.36a8.74,8.74,0,0,0-2.36,6.41,13.39,13.39,0,0,0,.43,3.44,6.33,6.33,0,0,0,1.47,2.75,7.06,7.06,0,0,0,2.94,1.86,14.12,14.12,0,0,0,4.74.66,21.23,21.23,0,0,0,5-.48,11.43,11.43,0,0,0,2.85-1l-.37-2.36Zm-11.33-9.43a6,6,0,0,1,3.8-1.11,5.17,5.17,0,0,1,2.88.69A3.92,3.92,0,0,1,190.49,20a5.09,5.09,0,0,1,.39,1.94H182a1.21,1.21,0,0,1-.79-.18.62.62,0,0,1-.22-.54A3.18,3.18,0,0,1,182.37,18.71Z" />
            <path fill="#034068"
                d="M149.27,17a6.87,6.87,0,0,0-5.2-1.88,8.47,8.47,0,0,0-3.22.54,6.86,6.86,0,0,0-2.14,1.28,6.73,6.73,0,0,0-1.26,1.47,5.33,5.33,0,0,0-2.39-2.48,8.1,8.1,0,0,0-3.79-.81,8.3,8.3,0,0,0-2.82.42,5.9,5.9,0,0,0-1.78,1,13.36,13.36,0,0,0-1.22,1.29l-.06-.06.06-.48V15.48h-3.74V32.21h3.74V23.35c0-2.1.46-3.59,1.38-4.46a4.79,4.79,0,0,1,3.43-1.32,5,5,0,0,1,2.26.48,3.29,3.29,0,0,1,1.53,1.68,7.86,7.86,0,0,1,.56,3.29v9.16h3.73V23.32c0-2.07.43-3.56,1.32-4.43a4.69,4.69,0,0,1,3.43-1.32,5,5,0,0,1,2.26.48,3.29,3.29,0,0,1,1.53,1.68,7.88,7.88,0,0,1,.55,3.29v9.16h3.74V22.93C151.08,20.24,150.47,18.26,149.27,17Z" />
            <path fill="#034068"
                d="M210.64,15.57a8.12,8.12,0,0,0-3-.48,6.87,6.87,0,0,0-3.31.72,6.48,6.48,0,0,0-2.18,1.76l-.06-.06.06-.6V15.48h-3.76V32.21h3.73V22.9a5.24,5.24,0,0,1,1.14-3.8,3.61,3.61,0,0,1,2.6-1.14,7.2,7.2,0,0,1,2.42.42,9.14,9.14,0,0,1,2,1.05,6.63,6.63,0,0,1,1.16,1l.95-3.87A6.41,6.41,0,0,0,210.64,15.57Z" />
        </g>
    </g>
</svg>