<svg xmlns="http://www.w3.org/2000/svg" viewBox="0 0 25 25"><defs><style>.cls-1{fill:#ffd96c;stroke:#ffd96c;stroke-miterlimit:10;}</style></defs><g id="Capa_2" data-name="Capa 2"><g id="Capa_1-2" data-name="Capa 1"><path class="cls-1" d="M24.5,10.15H21a9.35,9.35,0,0,0-.83-2l2.47-2.47L19.33,2.35,16.85,4.83a8.82,8.82,0,0,0-2-.84h0V.5h-4.7V4h0a9.35,9.35,0,0,0-2,.83L5.67,2.35,2.35,5.67,4.82,8.14a9.35,9.35,0,0,0-.83,2H.5v4.7H4a9.35,9.35,0,0,0,.83,2L2.35,19.33l3.32,3.32,2.47-2.47a9.35,9.35,0,0,0,2,.83h0V24.5h4.7V21h0a8.82,8.82,0,0,0,2-.84l2.48,2.48,3.32-3.32-2.47-2.47a9.35,9.35,0,0,0,.83-2H24.5Zm-9.34,6A4.54,4.54,0,0,1,8.84,9.84a3,3,0,0,1,1-1,4.54,4.54,0,0,1,6.32,6.32A3,3,0,0,1,15.16,16.16Z"/></g></g></svg>