<svg xmlns="http://www.w3.org/2000/svg" viewBox="0 0 24 24"><defs><style>.cls-1{fill:#034068;}</style></defs><g id="Capa_2" data-name="Capa 2"><g id="Capa_1-2" data-name="Capa 1"><path class="cls-1" d="M24,9.65H20.51a9.35,9.35,0,0,0-.83-2l2.47-2.47L18.83,1.85,16.35,4.33a8.82,8.82,0,0,0-2-.84h0V0H9.65V3.49h0a9.35,9.35,0,0,0-2,.83L5.17,1.85,1.85,5.17,4.32,7.64a9.35,9.35,0,0,0-.83,2H0v4.7H3.49a9.35,9.35,0,0,0,.83,2L1.85,18.83l3.32,3.32,2.47-2.47a9.35,9.35,0,0,0,2,.83h0V24h4.7V20.51h0a8.82,8.82,0,0,0,2-.84l2.48,2.48,3.32-3.32-2.47-2.47a9.35,9.35,0,0,0,.83-2H24Zm-9.34,6A4.54,4.54,0,0,1,8.34,9.34a3,3,0,0,1,1-1,4.54,4.54,0,0,1,6.32,6.32A3,3,0,0,1,14.66,15.66Z"/></g></g></svg>